<svg version="1.1" id="Layer_1" xmlns="http://www.w3.org/2000/svg" x="0" y="0" viewBox="0 0 250 250" xml:space="preserve"><defs/><g fill-rule="evenodd" clip-rule="evenodd" fill="#094E65" id="UXi4Mm.tif"><path d="M118.541 251.449c-5.625-3.017-11.902-5.238-16.752-9.204-11.942-9.761-15.688-26.059-10.272-40.276 5.351-14.056 18.685-23.391 33.696-23.591 14.753-.198 28.668 8.824 33.889 23.101 1.987 5.432 4.704 6.668 10.012 6.573 17.569-.316 35.149-.119 52.726-.119h7.764V44.049h-34.391c5.322 5.422 9.532 9.818 13.866 14.091 3.368 3.32 5.13 7.028 1.341 10.818-3.931 3.934-7.898 2.436-11.454-1.157-7.976-8.05-16.075-15.979-23.995-24.081-5.162-5.279-5.082-8.152.185-13.493 7.955-8.068 16.044-16.007 23.992-24.082 3.373-3.428 7.049-4.928 10.822-1.189 3.754 3.718 2.421 7.554-1.039 10.846-4.185 3.985-8.432 7.906-13.891 13.015 3.311.475 4.917.896 6.526.904 10.87.062 21.741-.041 32.608.065 7.621.075 9.719 2.007 9.725 9.324.057 57.814.057 115.632.005 173.447-.005 7.611-2.14 9.525-10.199 9.543-22.199.05-44.402.097-66.602-.053-3.977-.026-6 .882-7.412 5.092-4.395 13.115-14.658 20.144-27.267 24.31h-13.883zm-15.41-36.251c.055 12.507 10.004 22.402 22.464 22.339 12.455-.062 22.271-10.041 22.224-22.589-.052-12.616-9.817-22.268-22.475-22.212-12.632.056-22.268 9.798-22.213 22.462zM21.197 44.748v163.594h33.938c-4.687-4.799-8.668-9.036-12.83-13.087-3.66-3.564-5.16-7.452-1.13-11.38 3.899-3.803 7.546-1.701 10.823 1.537 8.229 8.124 16.476 16.232 24.776 24.282 4.119 3.994 4.269 7.868.165 11.949-8.361 8.318-16.687 16.672-25.012 25.027-3.381 3.392-7.244 4.709-10.939 1.062-3.721-3.672-2.51-7.589 1.083-10.815 4.431-3.979 8.971-7.84 13.46-11.751-.458-.809-.915-1.617-1.373-2.425h-28.79c-2.774 0-5.55.03-8.325-.012-8.578-.127-10.015-1.514-10.025-10.308-.042-34.923-.02-69.847-.02-104.769 0-21.973-.027-43.945.016-65.916.02-9.227 1.687-10.854 10.99-10.868 21.973-.03 43.943-.102 65.914.072 4.069.033 5.869-1.116 7.344-5.178 6.146-16.937 23.296-26.84 40.088-23.755 17.87 3.283 30.41 18.189 30.351 36.076-.057 17.268-12.686 32.565-29.336 35.535-17.769 3.168-34.838-6.207-40.963-23.311-1.704-4.753-3.938-5.698-8.429-5.652-20.313.21-40.626.093-61.776.093zm104.304 15.477c12.646-.014 22.328-9.717 22.314-22.362-.014-12.518-9.906-22.426-22.378-22.411-12.469.015-22.314 9.931-22.31 22.474.006 12.624 9.727 22.313 22.374 22.299z"/><path d="M125.388 162.716c-20.369-.033-36.288-16.167-36.144-36.627.142-19.934 16.276-35.856 36.302-35.829 20.256.027 36.312 16.318 36.154 36.68-.153 19.988-16.213 35.81-36.312 35.776zm22.425-36.058c.064-12.652-9.58-22.444-22.172-22.512-12.658-.068-22.444 9.567-22.511 22.167-.066 12.648 9.576 22.442 22.167 22.516 12.637.073 22.451-9.591 22.516-22.171z"/></g></svg>
