<svg version="1.1" id="Layer_1" xmlns="http://www.w3.org/2000/svg" x="0" y="0" viewBox="0 0 250 250" xml:space="preserve"><defs/><g fill-rule="evenodd" clip-rule="evenodd" fill="#094E65" id="WftspJ.tif"><path d="M113.049 250.449c-.352-.178-.696-.376-1.057-.532-3.756-1.614-5.83-5.167-5.213-8.949.622-3.806 3.607-6.68 7.757-6.788 7.3-.191 14.612-.189 21.913-.021 4.194.095 7.293 2.966 7.857 6.665.636 4.183-1.371 7.531-5.498 9.181-.297.119-.572.294-.857.445-8.301-.001-16.601-.001-24.902-.001zM125.613 213.062c-6.751 0-13.504.031-20.258-.008-6.311-.038-9.873-3.224-9.303-9.491 1.123-12.354-4.094-21.97-11.7-30.963-5.135-6.072-10.364-12.188-14.544-18.911-12.941-20.818-11.158-50.25 3.555-69.916C83.268 70.531 96.11 61.73 112.31 58.437c20.902-4.25 39.725.605 55.913 14.571 12.809 11.05 20.13 25.247 21.812 42.027 1.786 17.793-3.164 33.768-14.479 47.711-4.765 5.87-9.584 11.704-14.139 17.738-4.55 6.026-6.836 12.881-6.259 20.53.726 9.659-3.529 12.509-11.976 12.103-5.842-.279-11.711-.055-17.569-.055zm-12.519-16.537h25.813c.036-10.693 4.569-19.51 10.686-27.62 4.158-5.514 8.589-10.825 12.993-16.15 6.9-8.354 10.842-17.879 11.381-28.712 1.455-29.137-22.906-52.721-52.108-50.52-35.375 2.668-55.997 42.357-37.507 72.595 3.574 5.846 8.426 10.92 12.737 16.312 4.628 5.787 9.337 11.587 11.872 18.621 1.768 4.904 2.728 10.096 4.133 15.474zM125.58 231.806c-6.991 0-13.982.093-20.97-.025-6.198-.104-10.155-5.479-8.146-10.921 1.291-3.497 3.977-5.417 7.631-5.443 14.303-.095 28.608-.12 42.912.003 4.842.043 8.159 3.688 8.112 8.272-.046 4.637-3.516 8.021-8.571 8.09-6.989.097-13.98.024-20.968.024zM133.977 22.642c0 4.472.039 8.942-.009 13.413-.06 5.341-3.425 8.945-8.245 8.935-4.82-.011-8.159-3.612-8.187-8.982-.044-8.859-.05-17.719.001-26.579.03-5.3 3.484-8.994 8.232-8.979 4.738.015 8.143 3.723 8.198 9.025.048 4.389.01 8.779.01 13.167zM26.893 129.81c-4.47 0-8.94.034-13.411-.009-5.187-.049-8.794-3.371-8.855-8.069-.062-4.724 3.409-8.245 8.597-8.313 9.103-.119 18.209-.116 27.312-.002 5.211.066 8.652 3.548 8.598 8.301-.054 4.73-3.626 8.035-8.826 8.084-4.472.041-8.945.008-13.415.008zM224.633 129.81c-4.471 0-8.941.033-13.412-.009-5.219-.047-8.795-3.323-8.865-8.045-.072-4.761 3.355-8.268 8.56-8.337 9.103-.122 18.21-.115 27.312-.002 5.198.065 8.677 3.559 8.633 8.278-.042 4.705-3.644 8.052-8.813 8.105-4.474.046-8.944.01-13.415.01zM185.632 69.817c-3.173-.092-5.618-1.479-7.134-4.285-1.516-2.809-1.348-5.63.363-8.314.477-.745 1.105-1.405 1.733-2.035 6.196-6.214 12.395-12.431 18.624-18.613 3.797-3.767 8.732-4.008 12.125-.662 3.395 3.346 3.228 8.362-.498 12.125-6.234 6.293-12.523 12.532-18.771 18.81-1.787 1.794-3.801 3.035-6.442 2.974zM47.006 33.505c1.006.539 3.215 1.191 4.689 2.605 6.684 6.413 13.203 12.999 19.695 19.607 3.478 3.539 3.459 8.523.162 11.773-3.211 3.168-8.157 3.201-11.594-.164-6.674-6.541-13.264-13.169-19.828-19.82-2.526-2.558-3.13-5.692-1.736-8.993 1.354-3.212 3.96-4.818 8.612-5.008zM45.844 209.615c-3.197-.074-5.631-1.479-7.139-4.293-1.507-2.817-1.312-5.636.371-8.325.426-.681.992-1.29 1.563-1.86 6.255-6.274 12.505-12.555 18.794-18.794 3.836-3.805 8.695-4.022 12.127-.628 3.412 3.373 3.25 8.326-.504 12.12-6.289 6.354-12.557 12.734-19.012 18.916-1.595 1.528-3.881 2.337-5.847 3.475-.117-.204-.236-.406-.353-.611zM213.746 201.751c-.16 3.295-1.738 5.743-4.706 7.111-2.864 1.318-5.729 1.061-8.279-.882-1.157-.879-2.159-1.967-3.192-2.998-5.643-5.625-11.284-11.25-16.898-16.897-3.925-3.952-4.227-8.838-.815-12.301 3.446-3.498 8.362-3.259 12.304.658 6.225 6.189 12.404 12.424 18.625 18.616 1.863 1.859 3.098 3.958 2.961 6.693z"/></g></svg>
