<svg version="1.1" id="Layer_1" xmlns="http://www.w3.org/2000/svg" x="0" y="0" viewBox="0 0 250 250" xml:space="preserve"><defs/><path fill-rule="evenodd" clip-rule="evenodd" fill="#094E65" d="M186.513 62.485c-19.849-15.725-38.765-21.373-59.277-20.447-50.396 2.27-87.598 42.318-86.862 92.646.592 40.437 33.653 78.909 73.188 85.17 44.629 7.064 86.882-16.649 100.556-56.99 2.949-8.691 4.333-17.973 5.808-27.086 1.514-9.344 6.239-14.04 14.549-13.241 8.127.781 12.462 6.082 11.632 16.056-3.616 43.681-24.303 77.31-63.609 96.489-46.05 22.475-90.329 16.444-129.692-16.834-34.888-29.501-47.312-79.023-32.474-124.58C43.434 22.733 132.162-7.237 194.426 34.856" id="eD5Hx9.tif"/><path fill-rule="evenodd" clip-rule="evenodd" fill="#094E65" d="M165.985 25.985c15.251 9.124 25.483 1.8 39.779 18.211-2.507-10.506-4.506-19.649-6.912-28.686-2.113-7.949-.974-14.561 7.84-16.657 8.534-2.031 11.832 3.884 13.69 11.068 4.649 18.026 9.351 36.041 14.163 54.023 2.393 8.922-.603 14.401-9.642 16.646-18.43 4.582-36.835 9.248-55.243 13.912-7.474 1.895-13.899.518-15.991-7.578-2.11-8.144 2.803-12.553 10.434-14.043 9.407-1.838 18.872-3.419 28.309-5.112.033-1.495-5.774-3.86-5.742-5.354-14.543-10.345 9.657-9.01-3.595-16.941"/></svg>
