<?xml version="1.0" encoding="utf-8"?>
<!-- Generator: Adobe Illustrator 16.0.0, SVG Export Plug-In . SVG Version: 6.00 Build 0)  -->
<!DOCTYPE svg PUBLIC "-//W3C//DTD SVG 1.1//EN" "http://www.w3.org/Graphics/SVG/1.1/DTD/svg11.dtd">
<svg version="1.1" id="Layer_1" xmlns="http://www.w3.org/2000/svg" xmlns:xlink="http://www.w3.org/1999/xlink" x="0px" y="0px"
	 width="800px" height="245.669px" viewBox="0 0 800 245.669" enable-background="new 0 0 800 245.669" xml:space="preserve">
<g enable-background="new    ">
	<path fill="#0A4D64" d="M29.325,113.26c0,7.251,0.624,14.434,1.874,21.56c1.248,7.122,2.967,13.998,5.155,20.619
		c2.185,6.625,4.78,12.936,7.78,18.935c3,5.999,6.31,11.502,9.936,16.497l-9.748,6.189c-4.002-5.25-7.658-11.032-10.968-17.34
		c-3.312-6.317-6.187-13.063-8.623-20.25c-2.438-7.187-4.345-14.65-5.719-22.398c-1.375-7.748-2.062-15.688-2.062-23.812
		c0-7.999,0.687-15.905,2.062-23.714c1.374-7.813,3.28-15.312,5.719-22.498c2.436-7.187,5.311-13.938,8.623-20.249
		c3.31-6.309,6.965-12.09,10.968-17.343l9.748,6.189c-3.625,4.998-6.936,10.495-9.936,16.494c-3,5.998-5.596,12.314-7.78,18.939
		c-2.188,6.626-3.908,13.497-5.155,20.617C29.949,98.826,29.325,106.013,29.325,113.26z"/>
</g>
<g enable-background="new    ">
	<path fill="#0A4D64" d="M80.688,77.265h21.558v14.994h0.375c2.499-5.246,6-9.491,10.498-12.744
		c4.501-3.247,9.748-4.876,15.747-4.876c0.875,0,1.812,0.032,2.814,0.093c0.998,0.065,1.874,0.224,2.623,0.468v20.624
		c-1.5-0.376-2.782-0.622-3.844-0.747s-2.092-0.19-3.091-0.19c-5.128,0-9.253,0.938-12.375,2.812
		c-3.124,1.875-5.562,4.125-7.309,6.75c-1.752,2.628-2.94,5.313-3.564,8.061c-0.626,2.751-0.937,4.942-0.937,6.565v48.178H80.688
		V77.265z"/>
	<path fill="#0A4D64" d="M231.417,123.382c0,1.004,0,2.002,0,2.996c0,1.004-0.065,2.006-0.188,3.004h-68.427
		c0.249,3.253,1.092,6.218,2.53,8.904c1.436,2.691,3.343,5.002,5.719,6.936c2.373,1.941,5.062,3.471,8.061,4.593
		c3,1.129,6.122,1.69,9.375,1.69c5.624,0,10.372-1.031,14.246-3.095c3.875-2.062,7.062-4.903,9.563-8.528l14.997,11.996
		c-8.876,11.999-21.747,17.998-38.621,17.998c-6.999,0-13.434-1.096-19.308-3.277c-5.876-2.188-10.968-5.279-15.278-9.287
		c-4.312-3.993-7.688-8.901-10.124-14.711c-2.438-5.813-3.656-12.407-3.656-19.777c0-7.247,1.218-13.842,3.656-19.78
		c2.435-5.934,5.778-10.996,10.027-15.187c4.249-4.184,9.28-7.437,15.095-9.747c5.81-2.311,12.09-3.471,18.838-3.471
		c6.25,0,12.028,1.03,17.341,3.095c5.312,2.059,9.906,5.127,13.781,9.186c3.873,4.065,6.902,9.123,9.093,15.187
		C230.322,108.17,231.417,115.259,231.417,123.382z M208.919,113.26c0-2.872-0.406-5.624-1.217-8.249
		c-0.814-2.628-2.095-4.938-3.845-6.938c-1.75-1.999-3.969-3.589-6.654-4.778c-2.689-1.188-5.845-1.782-9.467-1.782
		c-6.749,0-12.467,2.033-17.153,6.093c-4.686,4.065-7.283,9.28-7.78,15.655H208.919z"/>
</g>
<g enable-background="new    ">
	<path fill="#0A4D64" d="M280.909,113.26c0-7.247-0.627-14.435-1.875-21.562c-1.25-7.12-2.97-13.991-5.154-20.617
		c-2.188-6.625-4.814-12.941-7.873-18.939c-3.065-6-6.345-11.497-9.844-16.494l9.748-6.189c3.874,5.252,7.501,11.034,10.874,17.343
		c3.375,6.31,6.282,13.062,8.717,20.249c2.438,7.186,4.342,14.684,5.719,22.498c1.373,7.809,2.062,15.715,2.062,23.714
		c0,8.124-0.69,16.063-2.062,23.812c-1.376,7.748-3.28,15.212-5.719,22.398c-2.435,7.187-5.342,13.933-8.717,20.25
		c-3.373,6.308-7,12.09-10.874,17.34l-9.748-6.189c3.5-4.995,6.779-10.498,9.844-16.497c3.059-5.999,5.685-12.31,7.873-18.935
		c2.185-6.621,3.904-13.497,5.154-20.619C280.281,127.694,280.909,120.511,280.909,113.26z"/>
</g>
<g enable-background="new    ">
	<path fill="#343466" d="M361.515,167.251h-14.06l-35.807-87.736h14.249l28.494,74.24h0.375l28.683-74.24h13.687L361.515,167.251z"
		/>
	<path fill="#343466" d="M432.567,45.771c0,2.621-0.938,4.78-2.815,6.468c-1.874,1.685-3.937,2.529-6.184,2.529
		c-2.251,0-4.313-0.844-6.188-2.529c-1.875-1.688-2.812-3.847-2.812-6.468c0-2.625,0.937-4.783,2.812-6.468
		c1.874-1.688,3.937-2.533,6.188-2.533c2.247,0,4.31,0.845,6.184,2.533C431.629,40.988,432.567,43.146,432.567,45.771z
		 M429.941,167.251h-12.748V79.515h12.748V167.251z"/>
	<path fill="#343466" d="M510.555,100.325c-1.877-3.624-4.72-6.594-8.53-8.904c-3.813-2.316-8.157-3.471-13.029-3.471
		c-2.252,0-4.499,0.251-6.75,0.752c-2.249,0.501-4.249,1.312-5.999,2.436c-1.751,1.122-3.157,2.562-4.216,4.311
		c-1.065,1.755-1.595,3.814-1.595,6.189c0,4.125,1.688,7.28,5.062,9.465c3.373,2.189,8.686,4.032,15.937,5.53
		c10.372,2.131,18.023,5.221,22.963,9.279c4.938,4.064,7.404,9.537,7.404,16.406c0,5.002-0.969,9.219-2.904,12.651
		c-1.938,3.443-4.47,6.257-7.593,8.44c-3.123,2.186-6.655,3.748-10.592,4.688c-3.937,0.937-7.905,1.404-11.906,1.404
		c-6.625,0-13.061-1.378-19.307-4.123c-6.252-2.746-11.375-7.064-15.374-12.936l10.124-7.498c2.25,3.873,5.56,7.119,9.936,9.747
		c4.374,2.62,9.187,3.933,14.434,3.933c2.749,0,5.372-0.243,7.877-0.744c2.497-0.503,4.686-1.373,6.561-2.627
		c1.873-1.248,3.375-2.838,4.501-4.779c1.121-1.94,1.685-4.342,1.685-7.22c0-4.62-2.221-8.09-6.654-10.407
		c-4.438-2.309-10.844-4.463-19.216-6.469c-2.626-0.619-5.407-1.404-8.343-2.341c-2.938-0.937-5.658-2.31-8.155-4.125
		c-2.501-1.81-4.564-4.093-6.188-6.838c-1.623-2.753-2.437-6.189-2.437-10.314c0-4.502,0.872-8.343,2.624-11.53
		c1.749-3.188,4.091-5.808,7.031-7.873c2.936-2.06,6.28-3.591,10.029-4.593c3.748-0.998,7.622-1.499,11.625-1.499
		c6.121,0,12.058,1.379,17.809,4.125c5.746,2.751,10.058,6.625,12.936,11.622L510.555,100.325z"/>
	<path fill="#343466" d="M562.671,45.771c0,2.621-0.938,4.78-2.814,6.468c-1.876,1.685-3.937,2.529-6.185,2.529
		c-2.252,0-4.312-0.844-6.188-2.529c-1.874-1.688-2.811-3.847-2.811-6.468c0-2.625,0.937-4.783,2.811-6.468
		c1.876-1.688,3.937-2.533,6.188-2.533c2.248,0,4.309,0.845,6.185,2.533C561.733,40.988,562.671,43.146,562.671,45.771z
		 M560.043,167.251h-12.746V79.515h12.746V167.251z"/>
	<path fill="#343466" d="M681.15,123.382c0,6.628-1.159,12.75-3.469,18.374c-2.313,5.624-5.53,10.493-9.655,14.619
		c-4.123,4.126-9.061,7.345-14.81,9.655c-5.75,2.316-12.063,3.471-18.935,3.471c-6.747,0-13-1.154-18.746-3.471
		c-5.75-2.311-10.688-5.529-14.812-9.655c-4.122-4.126-7.342-8.995-9.652-14.619c-2.316-5.624-3.469-11.746-3.469-18.374
		c0-6.625,1.152-12.749,3.469-18.371c2.311-5.624,5.53-10.501,9.652-14.626c4.125-4.125,9.062-7.34,14.812-9.655
		c5.746-2.31,11.999-3.465,18.746-3.465c6.871,0,13.185,1.155,18.935,3.465c5.749,2.315,10.687,5.53,14.81,9.655
		c4.125,4.125,7.342,9.002,9.655,14.626C679.991,110.633,681.15,116.757,681.15,123.382z M667.654,123.382
		c0-4.877-0.782-9.469-2.345-13.778c-1.565-4.311-3.783-8.059-6.654-11.247c-2.878-3.187-6.375-5.722-10.501-7.596
		c-4.123-1.874-8.749-2.812-13.872-2.812c-5.125,0-9.72,0.938-13.778,2.812c-4.062,1.874-7.531,4.409-10.405,7.596
		c-2.876,3.188-5.094,6.937-6.656,11.247c-1.562,4.31-2.341,8.901-2.341,13.778c0,4.873,0.778,9.465,2.341,13.781
		c1.562,4.309,3.78,8.059,6.656,11.247c2.874,3.187,6.343,5.688,10.405,7.495c4.059,1.816,8.653,2.719,13.778,2.719
		c5.123,0,9.749-0.902,13.872-2.719c4.126-1.807,7.623-4.309,10.501-7.495c2.871-3.188,5.089-6.938,6.654-11.247
		C666.872,132.847,667.654,128.255,667.654,123.382z"/>
	<path fill="#343466" d="M719.957,79.515c0.247,2.376,0.437,4.997,0.562,7.874c0.122,2.876,0.187,5.246,0.187,7.121h0.376
		c2.499-5.122,6.561-9.278,12.185-12.466s11.559-4.779,17.812-4.779c11.12,0,19.463,3.312,25.026,9.934
		c5.56,6.631,8.343,15.376,8.343,26.247v53.806h-12.749v-48.553c0-4.627-0.376-8.811-1.124-12.561
		c-0.75-3.755-2.032-6.97-3.841-9.655c-1.813-2.686-4.252-4.785-7.312-6.283c-3.066-1.498-6.908-2.25-11.531-2.25
		c-3.375,0-6.655,0.687-9.842,2.064c-3.188,1.375-6.03,3.466-8.529,6.278c-2.502,2.811-4.5,6.375-5.999,10.685
		c-1.498,4.315-2.252,9.411-2.252,15.278v44.996H708.52V98.826c0-2.376-0.064-5.438-0.188-9.187
		c-0.125-3.749-0.314-7.127-0.562-10.124H719.957z"/>
</g>
</svg>
